<svg xmlns="http://www.w3.org/2000/svg" xmlns:xlink="http://www.w3.org/1999/xlink" width="1080" zoomAndPan="magnify" viewBox="0 0 810 809.999993" height="1080" preserveAspectRatio="xMidYMid meet" version="1.0"><defs><clipPath id="2f401f09ab"><path d="M 216.210938 256.566406 L 593.460938 256.566406 L 593.460938 553.566406 L 216.210938 553.566406 Z M 216.210938 256.566406 " clip-rule="nonzero"/></clipPath></defs><g clip-path="url(#2f401f09ab)"><path fill="#ffffff" d="M 540.648438 283.632812 L 269.339844 283.632812 L 396.773438 381.65625 C 401.617188 385.386719 408.367188 385.386719 413.214844 381.65625 Z M 243.179688 297.535156 L 243.179688 526.355469 L 566.808594 526.355469 L 566.808594 297.535156 L 429.660156 403.035156 C 415.117188 414.21875 394.871094 414.21875 380.328125 403.035156 Z M 216.210938 283.632812 C 216.210938 268.738281 228.285156 256.664062 243.179688 256.664062 L 566.808594 256.664062 C 581.703125 256.664062 593.777344 268.738281 593.777344 283.632812 L 593.777344 526.355469 C 593.777344 541.25 581.703125 553.324219 566.808594 553.324219 L 243.179688 553.324219 C 228.285156 553.324219 216.210938 541.25 216.210938 526.355469 Z M 216.210938 283.632812 " fill-opacity="1" fill-rule="evenodd"/></g></svg>