<svg xmlns="http://www.w3.org/2000/svg" xmlns:xlink="http://www.w3.org/1999/xlink" width="1080" zoomAndPan="magnify" viewBox="0 0 810 809.999993" height="1080" preserveAspectRatio="xMidYMid meet" version="1.0"><defs><clipPath id="c7a6cb0c4d"><path d="M 193.734375 193.734375 L 616.265625 193.734375 L 616.265625 616.265625 L 193.734375 616.265625 Z M 193.734375 193.734375 " clip-rule="nonzero"/></clipPath><clipPath id="8f53668846"><path d="M 405 193.734375 C 288.320312 193.734375 193.734375 288.320312 193.734375 405 C 193.734375 521.679688 288.320312 616.265625 405 616.265625 C 521.679688 616.265625 616.265625 521.679688 616.265625 405 C 616.265625 288.320312 521.679688 193.734375 405 193.734375 Z M 405 193.734375 " clip-rule="nonzero"/></clipPath><clipPath id="fa711f9ace"><path d="M 193.734375 193.734375 L 615.402344 193.734375 L 615.402344 615.402344 L 193.734375 615.402344 Z M 193.734375 193.734375 " clip-rule="nonzero"/></clipPath><clipPath id="da3a8ed3d5"><path d="M 404.988281 193.734375 C 288.316406 193.734375 193.734375 288.316406 193.734375 404.988281 C 193.734375 521.660156 288.316406 616.238281 404.988281 616.238281 C 521.660156 616.238281 616.238281 521.660156 616.238281 404.988281 C 616.238281 288.316406 521.660156 193.734375 404.988281 193.734375 Z M 404.988281 193.734375 " clip-rule="nonzero"/></clipPath></defs><g clip-path="url(#c7a6cb0c4d)"><g clip-path="url(#8f53668846)"><path fill="#ffffff" d="M 193.734375 193.734375 L 616.265625 193.734375 L 616.265625 616.265625 L 193.734375 616.265625 Z M 193.734375 193.734375 " fill-opacity="1" fill-rule="nonzero"/></g></g><g clip-path="url(#fa711f9ace)"><g clip-path="url(#da3a8ed3d5)"><path stroke-linecap="butt" transform="matrix(3.346565, 0, 0, 3.346565, 193.735921, 193.735937)" fill="none" stroke-linejoin="miter" d="M 63.125138 -0.000466883 C 28.261962 -0.000466883 -0.000461952 28.261957 -0.000461952 63.125134 C -0.000461952 97.98831 28.261962 126.249567 63.125138 126.249567 C 97.988315 126.249567 126.249572 97.98831 126.249572 63.125134 C 126.249572 28.261957 97.988315 -0.000466883 63.125138 -0.000466883 Z M 63.125138 -0.000466883 " stroke="#ffffff" stroke-width="1.792883" stroke-opacity="1" stroke-miterlimit="4"/></g></g><path fill="#071820" d="M 405.230469 204.019531 C 294.105469 204.019531 204.019531 294.105469 204.019531 405.230469 C 204.019531 516.355469 294.105469 606.441406 405.230469 606.441406 C 516.355469 606.441406 606.441406 516.355469 606.441406 405.230469 C 606.441406 294.105469 516.355469 204.019531 405.230469 204.019531 Z M 351.058594 498.097656 L 312.363281 498.097656 L 312.363281 358.796875 L 351.058594 358.796875 Z M 331.59375 343.320312 L 331.378906 343.320312 C 319.832031 343.320312 312.363281 334.714844 312.363281 323.964844 C 312.363281 312.984375 320.0625 304.625 331.820312 304.625 C 343.589844 304.625 350.839844 312.984375 351.058594 323.964844 C 351.058594 334.707031 343.589844 343.320312 331.59375 343.320312 Z M 498.097656 498.097656 L 459.402344 498.097656 L 459.402344 428.449219 C 459.402344 405.230469 448.210938 397.492188 436.1875 397.492188 C 425.003906 397.492188 412.96875 405.230469 412.96875 428.449219 L 412.96875 498.097656 L 374.273438 498.097656 L 374.273438 358.796875 L 412.96875 358.796875 L 412.96875 382.015625 C 415.625 374.421875 428.324219 358.796875 451.664062 358.796875 C 482.621094 358.796875 498.097656 382.015625 498.097656 420.707031 Z M 498.097656 498.097656 " fill-opacity="1" fill-rule="nonzero"/></svg>